# This file uses centimeters as units for non-parametric coordinates.

mtllib TriMediano.mtl
g default
v -3.930861 3.538354 -0.279570
v -3.930861 3.538354 0.278814
v -0.399121 -0.000969 -0.279570
v -3.934654 0.002822 -0.279570
v -3.934654 0.002822 0.278814
v -0.399121 -0.000969 0.278814
vt 0.815723 0.170317
vt 0.186099 0.171023
vt 0.186774 0.829683
vt 0.184952 0.829683
vt 0.813901 0.170317
vt 0.184277 0.171023
vn 0.000000 0.000000 -1.000000
vn 0.000000 0.000000 -1.000000
vn 0.000000 0.000000 -1.000000
vn 0.471612 0.470602 0.745732
vn 0.471612 0.470602 0.745731
vn 0.707865 0.706348 0.000000
vn 0.707865 0.706348 0.000000
vn 0.000000 0.000000 1.000000
vn -1.000000 0.001073 0.000000
vn -1.000000 0.001073 0.000000
vn -1.000000 0.001073 0.000000
vn -1.000000 0.001073 0.000000
vn -0.001072 -1.000000 0.000000
vn -0.001072 -0.999999 0.000000
vn -0.001072 -1.000000 0.000000
vn -0.001072 -1.000000 0.000000
s off
g pCube2
usemtl blinn2SG
f 3/1/1 4/2/2 1/3/3
s 1
f 2/4/4 6/5/5 3/1/6 1/3/7
f 6/5/5 2/4/4 5/6/8
s off
f 4/2/9 5/6/10 2/4/11 1/3/12
f 5/6/13 4/2/14 3/1/15 6/5/16
