# This file uses centimeters as units for non-parametric coordinates.

mtllib TriPequeño1.mtl
g default
v -6.065527 3.536793 -0.279570
v -6.065527 3.536793 0.278814
v -6.069319 0.001261 -0.279570
v -6.069319 0.001261 0.278814
v -4.299657 1.767132 -0.279570
v -4.299657 1.767132 0.278814
vt 0.855078 -0.006179
vt 0.842588 -0.006179
vt 0.841093 1.006179
vt 0.853583 1.006179
vt 0.157412 0.499457
vt 0.144922 0.499457
vn -1.000000 0.001072 0.000000
vn -1.000000 0.001072 0.000000
vn -1.000000 0.001072 0.000000
vn -1.000000 0.001072 0.000000
vn 0.000000 -0.000000 -1.000000
vn 0.000000 -0.000000 -1.000000
vn 0.000000 -0.000000 -1.000000
vn 0.471612 0.470602 0.745731
vn 0.288712 0.288093 0.913043
vn 0.707865 0.706348 0.000000
vn 0.707865 0.706348 0.000000
vn 0.000000 0.000000 1.000000
vn 0.706348 -0.707865 0.000000
vn 0.706348 -0.707865 0.000000
vn 0.706348 -0.707865 0.000000
vn 0.706348 -0.707865 0.000000
s off
g pCube3
usemtl blinn2SG
f 3/1/1 4/2/2 2/3/3 1/4/4
f 5/5/5 3/1/6 1/4/7
s 1
f 2/3/8 6/6/9 5/5/10 1/4/11
f 4/2/12 6/6/9 2/3/8
s off
f 4/2/13 3/1/14 5/5/15 6/6/16
